<svg width="23" height="15" fill="none" xmlns="http://www.w3.org/2000/svg"><path opacity=".11" d="M22.143 1.847c.158-.545 0-.944-.75-.944h-2.48c-.63 0-.919.345-1.077.725 0 0-1.261 3.186-3.048 5.252-.577.6-.84.79-1.155.79-.157 0-.385-.19-.385-.734V1.847c0-.654-.182-.944-.708-.944H8.643a.607.607 0 00-.631.59c0 .619.893.762.985 2.505v3.783c0 .828-.144.98-.46.98-.841 0-2.886-3.198-4.1-6.859-.236-.711-.474-.998-1.108-.998H.85c-.709 0-.85.346-.85.725 0 .682.84 4.057 3.914 8.52 2.05 3.048 4.934 4.7 7.563 4.7 1.575 0 1.77-.367 1.77-1v-2.303c0-.734.15-.882.649-.882.366 0 .997.193 2.469 1.66 1.68 1.742 1.958 2.524 2.903 2.524h2.479c.708 0 1.062-.367.858-1.091-.223-.721-1.026-1.77-2.091-3.01-.579-.708-1.444-1.47-1.708-1.85-.367-.492-.26-.708 0-1.144 0 0 3.022-4.407 3.337-5.906z" fill="#212121"/></svg>