<svg width="20" height="20" viewBox="0 0 20 20" fill="none" xmlns="http://www.w3.org/2000/svg">
<path fill-rule="evenodd" clip-rule="evenodd" d="M9.75001 0C10.0373 0 10.3129 0.114137 10.516 0.317301C10.7192 0.520466 10.8333 0.796016 10.8333 1.08333V9.75001C10.8333 10.0373 10.7192 10.3129 10.516 10.516C10.3129 10.7192 10.0373 10.8333 9.75001 10.8333H1.08333C0.796016 10.8333 0.520466 10.7192 0.317301 10.516C0.114137 10.3129 0 10.0373 0 9.75001C0 9.46269 0.114137 9.18714 0.317301 8.98397C0.520466 8.78081 0.796016 8.66667 1.08333 8.66667H8.66667V1.08333C8.66667 0.796016 8.78081 0.520466 8.98397 0.317301C9.18714 0.114137 9.46269 0 9.75001 0Z" fill="#0A2896"/>
<path fill-rule="evenodd" clip-rule="evenodd" d="M8.66699 9.75033C8.66699 9.46301 8.78113 9.18746 8.98429 8.98429C9.18746 8.78113 9.46301 8.66699 9.75033 8.66699H18.417C18.7043 8.66699 18.9799 8.78113 19.183 8.98429C19.3862 9.18746 19.5003 9.46301 19.5003 9.75033C19.5003 10.0376 19.3862 10.3132 19.183 10.5164C18.9799 10.7195 18.7043 10.8337 18.417 10.8337H10.8337V18.417C10.8337 18.7043 10.7195 18.9799 10.5164 19.183C10.3132 19.3862 10.0376 19.5003 9.75033 19.5003C9.46301 19.5003 9.18746 19.3862 8.98429 19.183C8.78113 18.9799 8.66699 18.7043 8.66699 18.417V9.75033Z" fill="#0A2896"/>
</svg>
