<svg width="23" height="15" viewBox="0 0 23 15" fill="none" xmlns="http://www.w3.org/2000/svg">
<path opacity="0.11" d="M22.1426 1.84713C22.3009 1.30227 22.1426 0.90271 21.3939 0.90271H18.9137C18.2827 0.90271 17.9943 1.24837 17.836 1.62801C17.836 1.62801 16.575 4.81395 14.7881 6.87971C14.2113 7.48081 13.9478 7.67063 13.6334 7.67063C13.4762 7.67063 13.2478 7.48081 13.2478 6.93595V1.84713C13.2478 1.1933 13.0657 0.90271 12.5398 0.90271H8.6426C8.24903 0.90271 8.01154 1.20502 8.01154 1.49326C8.01154 2.11194 8.90497 2.25489 8.99658 3.99842V7.78077C8.99658 8.60918 8.85295 8.76034 8.53629 8.76034C7.69601 8.76034 5.65128 5.56268 4.43778 1.9022C4.20142 1.19096 3.96279 0.903882 3.32947 0.903882H0.850462C0.141367 0.903882 0 1.24954 0 1.62918C0 2.31113 0.840284 5.68572 3.91416 10.1488C5.96342 13.1965 8.84843 14.8487 11.4767 14.8487C13.0521 14.8487 13.2466 14.4819 13.2466 13.8492V11.5455C13.2466 10.812 13.397 10.6644 13.8958 10.6644C14.2622 10.6644 14.8933 10.8566 16.3646 12.3247C18.0452 14.0659 18.3234 14.8475 19.2677 14.8475H21.7467C22.4547 14.8475 22.8087 14.4807 22.6051 13.7566C22.3823 13.036 21.5794 11.9873 20.514 10.7464C19.935 10.0387 19.0698 9.27707 18.8063 8.89626C18.4387 8.4053 18.5451 8.18853 18.8063 7.75265C18.8063 7.75265 21.8282 3.34577 22.1426 1.84713Z" fill="#212121"/>
</svg>
