<svg width="20" height="21" viewBox="0 0 20 21" fill="none" xmlns="http://www.w3.org/2000/svg">
<path fill-rule="evenodd" clip-rule="evenodd" d="M9.75001 0.501465C10.0373 0.501465 10.3129 0.615602 10.516 0.818766C10.7192 1.02193 10.8333 1.29748 10.8333 1.5848V10.2515C10.8333 10.5388 10.7192 10.8143 10.516 11.0175C10.3129 11.2207 10.0373 11.3348 9.75001 11.3348H1.08333C0.796016 11.3348 0.520466 11.2207 0.317301 11.0175C0.114137 10.8143 0 10.5388 0 10.2515C0 9.96415 0.114137 9.6886 0.317301 9.48544C0.520466 9.28227 0.796016 9.16814 1.08333 9.16814H8.66667V1.5848C8.66667 1.29748 8.78081 1.02193 8.98397 0.818766C9.18714 0.615602 9.46269 0.501465 9.75001 0.501465Z" fill="#0A2896"/>
<path fill-rule="evenodd" clip-rule="evenodd" d="M8.66699 10.2518C8.66699 9.96447 8.78113 9.68892 8.98429 9.48576C9.18746 9.28259 9.46301 9.16846 9.75033 9.16846H18.417C18.7043 9.16846 18.9799 9.28259 19.183 9.48576C19.3862 9.68892 19.5003 9.96447 19.5003 10.2518C19.5003 10.5391 19.3862 10.8147 19.183 11.0178C18.9799 11.221 18.7043 11.3351 18.417 11.3351H10.8337V18.9185C10.8337 19.2058 10.7195 19.4813 10.5164 19.6845C10.3132 19.8877 10.0376 20.0018 9.75033 20.0018C9.46301 20.0018 9.18746 19.8877 8.98429 19.6845C8.78113 19.4813 8.66699 19.2058 8.66699 18.9185V10.2518Z" fill="#0A2896"/>
</svg>
